<svg xmlns="http://www.w3.org/2000/svg" viewBox="0 0 64 64">
  <defs>
    <linearGradient id="g" x1="0%" y1="0%" x2="100%" y2="100%">
      <stop offset="0%" stop-color="#f0c850"/>
      <stop offset="100%" stop-color="#c4872a"/>
    </linearGradient>
  </defs>
  <!-- Dragon head silhouette -->
  <path d="M32 4 C28 4 24 8 22 12 C20 16 18 18 14 18 C10 18 8 20 8 24 C8 28 10 30 12 32 C10 34 8 38 10 42 C12 46 16 48 18 48 L20 52 L18 56 L22 54 L24 58 L28 54 L30 60 L32 54 L34 60 L36 54 L40 58 L42 54 L46 56 L44 52 L46 48 C48 48 52 46 54 42 C56 38 54 34 52 32 C54 30 56 28 56 24 C56 20 54 18 50 18 C46 18 44 16 42 12 C40 8 36 4 32 4Z" fill="url(#g)"/>
  <!-- Eye -->
  <ellipse cx="26" cy="24" rx="3.5" ry="4" fill="#1a1a2e"/>
  <ellipse cx="38" cy="24" rx="3.5" ry="4" fill="#1a1a2e"/>
  <ellipse cx="26" cy="23.5" rx="1.5" ry="2" fill="#e2b340"/>
  <ellipse cx="38" cy="23.5" rx="1.5" ry="2" fill="#e2b340"/>
  <!-- Nostrils -->
  <circle cx="29" cy="36" r="2" fill="#1a1a2e" opacity="0.6"/>
  <circle cx="35" cy="36" r="2" fill="#1a1a2e" opacity="0.6"/>
  <!-- Snout ridge -->
  <path d="M32 16 L30 28 L32 30 L34 28 Z" fill="#1a1a2e" opacity="0.15"/>
  <!-- Horns -->
  <path d="M22 12 C20 6 16 2 12 0 C16 4 18 8 20 12" fill="url(#g)" stroke="#c4872a" stroke-width="0.5"/>
  <path d="M42 12 C44 6 48 2 52 0 C48 4 46 8 44 12" fill="url(#g)" stroke="#c4872a" stroke-width="0.5"/>
</svg>
